PathFileType   4   (X/Y/Z)
DataRate	CameraRate	NumFrames	NumMarkers	Units	OrigDataRate	OrigDataStartFrame	OrigNumFrames
120.0	120.0	9	37	mm	120.0	109	173
Frame#	Time	midhip	hip_r	hip_l	knee_r	knee_l	ankle_r	ankle_l	midasis	asis_r	asis_l	psis_r	psis_l	epicondLat_r	epicondLat_l	epicondMed_r	epicondMed_l	malleolusLat_r	malleolusLat_l	malleolusMedv_r	malleolusMedv_l	neck	subclavicle_r	subclavicle_l	sternalnotch	xyphoidprocess	thighwand_r	thighwand_l	upperleg1_r	upperleg1_l	upperleg2_r	upperleg2_l	shankwand_r	shankwand_l	lowerleg1_r	lowerleg1_l	toe_r	toe_l
 	 	X1	Y1	Z1	X2	Y2	Z2	X3	Y3	Z3	X4	Y4	Z4	X5	Y5	Z5	X6	Y6	Z6	X7	Y7	Z7	X8	Y8	Z8	X9	Y9	Z9	X10	Y10	Z10	X11	Y11	Z11	X12	Y12	Z12	X13	Y13	Z13	X14	Y14	Z14	X15	Y15	Z15	X16	Y16	Z16	X17	Y17	Z17	X18	Y18	Z18	X19	Y19	Z19	X20	Y20	Z20	X21	Y21	Z21	X22	Y22	Z22	X23	Y23	Z23	X24	Y24	Z24	X25	Y25	Z25	X26	Y26	Z26	X27	Y27	Z27	X28	Y28	Z28	X29	Y29	Z29	X30	Y30	Z30	X31	Y31	Z31	X32	Y32	Z32	X33	Y33	Z33	X34	Y34	Z34	X35	Y35	Z35	X36	Y36	Z36	X37	Y37	Z37

	109	1.13333	-1034.067	626.746	233.715	-1031.545	635.803	290.108	-1023.294	641.935	173.114	-1028.561	336.300	329.908	-982.329	344.979	204.245	-1257.814	148.607	306.020	-973.269	56.030	216.370	-980.398	698.428	238.049	-986.744	693.711	328.044	-974.051	703.146	148.055	-1119.915	723.282	275.542	-1111.412	721.956	189.425	-1045.146	341.790	372.462	-981.582	340.077	156.502	-1009.432	323.735	289.416	-989.374	347.354	244.447	-1265.986	154.523	337.965	-982.421	54.436	185.226	-1245.598	152.260	280.095	-976.599	57.795	250.336	-1036.460	1036.926	230.848	-950.356	960.938	270.092	-956.494	957.956	180.915	-966.155	974.302	233.665	-939.307	834.816	231.281	-901.645	423.172	340.022	-926.562	422.684	96.425	-981.989	475.418	354.566	-945.049	485.717	169.835	-993.435	389.075	362.587	-939.177	404.935	195.062	-1198.836	191.074	414.689	-885.165	170.143	235.164	-1146.716	241.247	361.408	-948.528	220.940	210.140	-1208.690	78.729	322.899	-888.414	37.810	220.984
	110	1.14167	-1029.262	627.261	233.604	-1026.663	636.463	289.924	-1018.848	642.293	172.885	-1019.249	337.619	331.084	-980.159	345.081	204.142	-1246.472	148.687	307.012	-973.041	56.011	216.344	-975.774	699.005	237.512	-981.785	694.521	327.536	-969.763	703.489	147.487	-1115.208	723.725	275.583	-1107.047	722.343	189.480	-1035.675	343.082	373.703	-979.869	340.098	156.402	-999.786	324.573	291.334	-987.238	347.469	244.408	-1255.150	155.083	338.730	-982.326	54.469	185.237	-1234.012	151.402	281.112	-976.528	57.830	250.361	-1032.018	1037.295	230.379	-945.911	961.407	270.145	-951.632	958.288	180.910	-961.585	974.715	233.621	-934.509	835.245	231.550	-893.351	426.353	340.097	-924.750	422.062	95.860	-974.407	477.201	355.054	-942.141	485.357	169.366	-984.167	390.764	363.835	-936.862	404.522	194.605	-1189.673	193.031	415.829	-884.323	169.500	234.688	-1136.931	242.593	362.353	-947.487	220.736	210.045	-1196.553	79.861	326.554	-888.419	37.790	220.924
	111	1.15000	-1024.516	627.744	233.543	-1021.801	637.104	289.776	-1014.434	642.612	172.692	-1009.897	338.918	332.122	-977.950	345.164	204.060	-1234.803	148.285	308.056	-972.819	55.983	216.326	-971.197	699.567	236.996	-976.862	695.330	327.043	-965.531	703.803	146.948	-1110.532	724.116	275.660	-1102.690	722.659	189.546	-1026.168	344.330	374.807	-978.115	340.110	156.327	-990.036	325.522	293.023	-985.005	347.612	244.452	-1243.943	155.092	339.558	-982.231	54.498	185.254	-1222.099	150.150	282.266	-976.460	57.855	250.394	-1027.633	1037.590	229.926	-941.525	961.843	270.234	-946.972	958.626	180.956	-957.089	975.115	233.593	-929.849	835.656	231.787	-885.103	429.541	340.080	-922.921	421.458	95.326	-966.912	479.010	355.472	-939.179	485.009	168.895	-974.952	392.511	364.920	-934.480	404.097	194.192	-1180.029	194.503	416.935	-883.481	168.831	234.245	-1126.974	243.598	363.208	-946.419	220.561	209.942	-1184.016	80.646	329.868	-888.424	37.773	220.875
	112	1.15833	-1019.838	628.178	233.545	-1016.977	637.714	289.681	-1010.071	642.889	172.554	-1000.483	340.164	333.027	-975.694	345.225	203.998	-1222.834	147.446	309.134	-972.607	55.943	216.314	-966.679	700.103	236.521	-971.989	696.124	326.581	-961.369	704.081	146.462	-1105.886	724.449	275.763	-1098.330	722.909	189.614	-1016.606	345.498	375.777	-976.295	340.114	156.275	-980.206	326.659	294.330	-982.789	347.918	244.491	-1232.358	154.551	340.456	-982.134	54.520	185.274	-1209.970	148.597	283.380	-976.395	57.790	250.319	-1023.315	1037.878	229.591	-937.208	962.302	270.272	-942.420	959.018	180.994	-952.655	975.500	233.581	-925.248	836.107	231.946	-876.892	432.724	339.989	-921.030	420.884	94.835	-959.422	480.839	355.844	-935.855	484.753	168.540	-965.788	394.295	365.773	-931.987	403.723	193.789	-1169.822	195.354	417.996	-882.636	168.137	233.852	-1116.744	244.139	364.020	-945.282	220.353	209.790	-1171.076	81.085	332.806	-888.426	37.755	220.834
	113	1.16667	-1015.224	628.565	233.586	-1012.207	638.284	289.647	-1005.766	643.120	172.479	-990.996	341.337	333.804	-973.391	345.259	203.960	-1210.585	146.215	310.231	-972.403	55.894	216.309	-962.227	700.602	236.106	-967.178	696.885	326.167	-957.276	704.319	146.046	-1101.273	724.717	275.883	-1093.964	723.100	189.685	-1006.976	346.562	376.621	-974.393	340.107	156.248	-970.379	327.864	295.230	-980.822	348.293	244.342	-1220.388	153.478	341.430	-982.024	54.538	185.296	-1197.743	146.882	284.454	-976.410	57.666	250.166	-1019.116	1038.180	229.344	-932.970	962.772	270.268	-937.897	959.378	181.026	-948.282	975.862	233.576	-920.660	836.556	232.148	-868.721	435.895	339.824	-919.037	420.343	94.401	-952.009	482.533	356.233	-932.263	484.555	168.285	-956.699	395.952	366.406	-929.525	403.321	193.353	-1158.998	195.507	419.007	-881.789	167.421	233.529	-1106.081	244.220	364.912	-944.129	220.089	209.680	-1157.732	81.183	335.350	-888.424	37.734	220.802
	114	1.17500	-1010.638	628.907	233.662	-1007.498	638.805	289.675	-1001.511	643.305	172.470	-981.440	342.425	334.459	-971.046	345.263	203.951	-1198.068	144.628	311.337	-972.204	55.839	216.316	-957.838	701.056	235.760	-962.438	697.598	325.810	-953.238	704.514	145.710	-1096.690	724.919	275.983	-1089.593	723.237	189.765	-997.276	347.513	377.346	-972.398	340.086	156.251	-960.693	329.185	295.957	-978.663	348.441	244.222	-1208.037	151.905	342.480	-981.897	54.554	185.322	-1185.265	144.985	285.575	-976.450	57.670	250.187	-1015.015	1038.486	229.077	-928.726	963.190	270.341	-933.400	959.687	181.122	-943.962	976.189	233.569	-916.069	836.955	232.413	-860.600	439.047	339.579	-916.907	419.835	94.040	-944.610	484.209	356.664	-928.926	484.213	167.979	-947.652	397.600	366.952	-927.020	402.859	192.973	-1147.539	194.946	419.971	-880.938	166.683	233.299	-1094.989	243.892	365.868	-942.876	219.820	209.611	-1143.983	80.949	337.498	-888.417	37.710	220.782
	115	1.18333	-1006.152	629.198	233.812	-1002.846	639.269	289.750	-997.272	643.445	172.512	-971.824	343.428	334.995	-968.670	345.234	203.979	-1185.294	142.715	312.440	-972.014	55.779	216.342	-953.492	701.461	235.487	-957.773	698.253	325.520	-949.211	704.668	145.453	-1092.130	725.058	276.022	-1085.226	723.320	189.865	-987.511	348.353	377.956	-970.312	340.044	156.289	-951.121	330.709	296.305	-976.108	348.398	244.262	-1195.314	149.871	343.595	-981.750	54.568	185.358	-1172.371	142.844	286.696	-976.372	57.760	250.305	-1010.849	1038.762	228.776	-924.478	963.532	270.417	-928.913	960.002	181.211	-939.684	976.470	233.553	-911.544	837.307	232.567	-852.548	442.174	339.243	-914.623	419.352	93.769	-937.152	485.958	356.986	-925.867	483.766	167.646	-938.670	399.284	367.243	-924.363	402.437	192.710	-1135.460	193.724	420.898	-880.085	165.928	233.182	-1083.564	243.197	366.694	-941.516	219.580	209.564	-1129.833	80.403	339.265	-888.404	37.681	220.778
	116	1.19167	-1001.656	629.426	233.994	-998.247	639.672	289.862	-993.023	643.543	172.597	-962.169	344.351	335.416	-966.273	345.171	204.054	-1172.269	140.498	313.535	-971.841	55.711	216.395	-949.174	701.814	235.287	-953.184	698.842	325.304	-945.165	704.786	145.269	-1087.590	725.141	275.965	-1080.867	723.345	189.990	-977.701	349.092	378.454	-968.142	339.976	156.373	-941.629	332.286	296.256	-973.385	348.273	244.308	-1182.239	147.421	344.759	-981.588	54.577	185.412	-1159.083	140.505	287.790	-976.209	57.818	250.379	-1006.640	1038.981	228.454	-920.317	963.793	270.400	-924.588	960.196	181.173	-935.443	976.695	233.529	-907.289	837.542	232.658	-844.579	445.266	338.814	-912.182	418.882	93.604	-929.683	487.679	357.157	-922.803	483.333	167.410	-929.786	400.844	367.260	-921.583	402.052	192.517	-1122.807	191.946	421.797	-879.234	165.154	233.198	-1071.668	242.069	367.602	-940.188	219.288	209.590	-1115.288	79.571	340.685	-888.381	37.651	220.795
	117	1.20000	-997.106	629.602	234.133	-993.693	640.006	290.000	-988.741	643.597	172.715	-952.498	345.210	335.722	-963.875	345.070	204.182	-1158.987	137.986	314.617	-971.698	55.631	216.481	-944.872	702.114	235.161	-948.673	699.359	325.165	-941.072	704.869	145.157	-1083.073	725.165	275.827	-1076.513	723.299	190.139	-967.869	349.749	378.840	-965.907	339.875	156.508	-931.818	333.687	296.222	-970.703	348.151	244.381	-1168.827	144.600	345.949	-981.425	54.577	185.489	-1145.647	138.035	288.886	-976.162	57.822	250.444	-1002.530	1039.170	228.205	-916.202	963.986	270.415	-920.368	960.244	181.109	-931.231	976.858	233.503	-903.142	837.672	232.849	-836.699	448.312	338.296	-909.594	418.413	93.552	-922.296	489.270	357.217	-919.538	482.923	167.376	-920.736	402.312	367.231	-918.735	401.639	192.448	-1109.653	189.745	422.674	-878.390	164.363	233.352	-1059.370	240.646	368.652	-938.907	218.895	209.685	-1100.368	78.485	341.804	-888.348	37.622	220.840
